<svg width="40" height="30" viewBox="0 0 40 30" fill="none" xmlns="http://www.w3.org/2000/svg">
<path d="M23.3429 19.5074C22.3477 20.1708 21.1918 20.5215 20 20.5215C18.8083 20.5215 17.6523 20.1708 16.6572 19.5074L0.266328 8.57978C0.175844 8.51928 0.0870347 8.45631 0 8.39095L0 26.297C0 28.3499 1.66602 29.9792 3.68227 29.9792H36.3177C38.3706 29.9792 39.9999 28.3132 39.9999 26.297V8.39087C39.9127 8.45641 39.8237 8.51951 39.733 8.58009L23.3429 19.5074Z" fill="#FF7C00"/>
<path d="M1.56641 6.6295L17.9573 17.5572C18.5777 17.9708 19.2888 18.1776 19.9999 18.1776C20.7111 18.1776 21.4223 17.9708 22.0427 17.5572L38.4336 6.6295C39.4145 5.97599 40 4.88224 40 3.70177C40 1.672 38.3487 0.020752 36.319 0.020752H3.68102C1.65133 0.0208301 1.93758e-06 1.67208 1.93758e-06 3.70372C-0.000606547 4.28279 0.142112 4.85301 0.415428 5.36351C0.688743 5.87402 1.08416 6.30895 1.56641 6.6295Z" fill="#FF7C00"/>
</svg>
