<svg width="83" height="83" viewBox="0 0 83 83" fill="none" xmlns="http://www.w3.org/2000/svg">
<g clip-path="url(#clip0_4_12)">
<circle cx="41.1328" cy="41.8673" r="32.3186" fill="white"/>
<path d="M70.8402 12.1503C54.631 -4.05401 28.3546 -4.05012 12.1503 12.1592C-4.05401 28.3685 -4.05012 54.6448 12.1592 70.8491C28.3685 87.0534 54.6448 87.0495 70.8491 70.8402C74.7022 66.986 77.7583 62.4106 79.8432 57.3752C81.928 52.3399 83.0006 46.9433 82.9997 41.4934C82.9989 36.0435 81.9247 30.6472 79.8383 25.6125C77.752 20.5778 74.6944 16.0033 70.8402 12.1503ZM62.85 57.8087L62.8445 57.8142V57.8004L60.7418 59.8892C59.4046 61.2432 57.741 62.2295 55.9115 62.7529C54.082 63.2763 52.1484 63.3191 50.2975 62.8772C46.5051 61.8621 42.8997 60.2462 39.6183 58.0909C36.5695 56.1426 33.7444 53.8648 31.1938 51.2987C28.847 48.969 26.7385 46.411 24.8995 43.6627C22.8881 40.7056 21.296 37.484 20.1685 34.09C19.5348 32.1351 19.458 30.0423 19.9467 28.0461C20.4353 26.05 21.4702 24.2294 22.9353 22.7882L25.3975 20.3259C26.0821 19.6383 27.1945 19.6358 27.882 20.3204L27.8875 20.3259L35.6618 28.1002C36.3495 28.7848 36.3519 29.8972 35.6673 30.5847L35.6618 30.5902L31.0968 35.1552C29.787 36.4508 29.6223 38.5096 30.7095 39.9969C32.3607 42.2629 34.1877 44.3952 36.1738 46.3742C38.388 48.598 40.7952 50.621 43.367 52.4194C44.8531 53.4559 46.8678 53.2812 48.1533 52.0044L52.5661 47.5224C53.2507 46.8347 54.3631 46.8323 55.0506 47.5169L55.0561 47.5224L62.8443 55.3244C63.5321 56.0088 63.5346 57.121 62.85 57.8087Z" fill="#FF7C00"/>
</g>
<defs>
<clipPath id="clip0_4_12">
<rect width="83" height="83" fill="white"/>
</clipPath>
</defs>
</svg>
