<svg width="200" height="24" viewBox="0 0 200 24" fill="none" xmlns="http://www.w3.org/2000/svg">
<path d="M200 23.6522H194.924V14.0174C194.924 12.2087 194.889 11.7913 194.608 11.2C194.293 10.5043 193.628 10.087 192.753 10.087C191.002 10.087 190.057 11.4783 190.057 14.0174V23.6522H184.981V6.50435H189.707V9.3913C191.178 6.88696 192.333 6.15652 194.749 6.15652C196.499 6.15652 197.969 6.74783 198.845 7.82609C199.65 8.83478 200 10.2261 200 12.6609V23.6522Z" fill="#AB541F"/>
<path d="M180.792 6.50435V23.6522H175.715V6.50435H180.792ZM180.792 0V5.04348H175.715V0H180.792Z" fill="#AB541F"/>
<path d="M173.403 0.452168L167.521 23.6522H162.165L158.314 8.31304C158.174 8.90434 158.139 9.07826 157.999 9.63478L154.638 23.6522H149.281L143.294 0.452168H148.861L152.082 14.6087C152.082 14.6783 152.152 14.9565 152.292 15.3739C152.292 15.4435 152.397 15.7565 152.467 16.0696L156.283 0.452168H161.325L165.246 16.0696C165.351 15.7217 165.386 15.4783 165.421 15.3739C165.491 15.1304 165.526 14.887 165.596 14.6087L168.922 0.452168H173.403Z" fill="#AB541F"/>
<path d="M127.132 23.6522V0.452168H132.208V23.6522H127.132Z" fill="#AB541F"/>
<path d="M117.867 23.6522V0.452168H122.943V23.6522H117.867Z" fill="#AB541F"/>
<path d="M113.678 6.50435V23.6522H108.601V6.50435H113.678ZM113.678 0V5.04348H108.601V0H113.678Z" fill="#AB541F"/>
<path d="M106.289 0.452168L100.407 23.6522H95.0506L91.1995 8.31304C91.0595 8.90434 91.0245 9.07826 90.8844 9.63478L87.5235 23.6522H82.1669L76.1802 0.452168H81.7468L84.9677 14.6087C84.9677 14.6783 85.0377 14.9565 85.1778 15.3739C85.1778 15.4435 85.2828 15.7565 85.3528 16.0696L89.1689 0.452168H94.2104L98.1315 16.0696C98.2366 15.7217 98.2716 15.4783 98.3066 15.3739C98.3766 15.1304 98.4116 14.887 98.4816 14.6087L101.808 0.452168H106.289Z" fill="#AB541F"/>
<path d="M60.0177 23.6522V0.452168H65.0942V23.6522H60.0177Z" fill="#AB541F"/>
<path d="M50.7524 23.6522V0.452168H55.8289V23.6522H50.7524Z" fill="#AB541F"/>
<path d="M46.5635 6.50435V23.6522H41.4871V6.50435H46.5635ZM46.5635 0V5.04348H41.4871V0H46.5635Z" fill="#AB541F"/>
<path d="M33.8216 12.313L39.4583 23.6522H33.8216L30.2156 15.8609L27.2397 19.2696V23.6522H22.4434V0.452168H27.2397V14.3652C27.5898 13.9478 27.8699 13.5652 27.975 13.4261C28.4301 12.8696 28.7102 12.487 28.7802 12.4174L33.8216 6.50434H38.7931L33.8216 12.313Z" fill="#AB541F"/>
<path d="M18.4503 5.56521L13.829 7.09565C12.9888 5.00869 11.9735 4.34782 9.76783 4.34782C7.73724 4.34782 6.5819 5.11304 6.5819 6.4C6.5819 7.75652 7.42215 8.34782 9.94288 8.83478C13.4439 9.56522 14.8793 10.0174 16.0696 10.8174C18.0302 12.1391 19.0805 14.087 19.0805 16.313C19.0805 18.7478 17.7501 21.1478 15.6495 22.5043C14.1441 23.4783 11.9385 24 9.48775 24C6.75695 24 4.55132 23.3391 2.80081 22.0174C1.33039 20.8696 0.665192 19.8261 0 17.5652L5.04146 16.4174C5.70665 18.6435 7.17708 19.6522 9.76783 19.6522C12.0785 19.6522 13.5139 18.713 13.5139 17.2174C13.5139 15.8261 12.5686 15.2 9.45273 14.5739C6.86199 14.0522 5.35655 13.5652 4.06117 12.7652C2.24065 11.687 1.22535 9.77391 1.22535 7.47826C1.22535 5.32174 2.03059 3.51304 3.60604 2.12174C5.1815 0.730431 7.10706 0.104343 9.73282 0.104343C12.2535 0.104343 14.2841 0.695649 15.8596 1.87826C17.0849 2.78261 17.7151 3.68695 18.4503 5.56521Z" fill="#AB541F"/>
</svg>
