<svg width="28" height="28" viewBox="0 0 28 28" fill="none" xmlns="http://www.w3.org/2000/svg">
<path fill-rule="evenodd" clip-rule="evenodd" d="M3.71838 25.0527H24.1488C24.3533 25.0527 24.5495 24.9714 24.6941 24.8268C24.8387 24.6822 24.9199 24.4861 24.9199 24.2816C24.9199 24.077 24.8387 23.8809 24.6941 23.7363C24.5495 23.5917 24.3533 23.5104 24.1488 23.5104H3.71838C3.51387 23.5104 3.31773 23.5917 3.17312 23.7363C3.02851 23.8809 2.94727 24.077 2.94727 24.2816C2.94727 24.4861 3.02851 24.6822 3.17312 24.8268C3.31773 24.9714 3.51387 25.0527 3.71838 25.0527Z" fill="#086885"/>
<path fill-rule="evenodd" clip-rule="evenodd" d="M11.811 25.0527C11.6064 25.0527 11.4103 24.9714 11.2657 24.8268C11.1211 24.6822 11.0398 24.4861 11.0398 24.2815V17.5986C11.0404 17.2579 11.176 16.9313 11.4169 16.6904C11.6578 16.4495 11.9844 16.3139 12.325 16.3134H15.4095C15.75 16.3144 16.0763 16.4502 16.3171 16.691C16.5579 16.9318 16.6936 17.258 16.6947 17.5986V24.2815C16.6947 24.4861 16.6134 24.6822 16.4688 24.8268C16.3242 24.9714 16.1281 25.0527 15.9236 25.0527H19.008C19.2125 25.0527 19.4087 24.9714 19.5533 24.8268C19.6979 24.6822 19.7791 24.4861 19.7791 24.2815V4.74664C19.7791 4.26944 19.5896 3.81179 19.2522 3.47436C18.9147 3.13693 18.4571 2.94737 17.9799 2.94737H9.75465C9.27746 2.94737 8.81981 3.13693 8.48238 3.47436C8.14495 3.81179 7.95539 4.26944 7.95539 4.74664V24.2815C7.95539 24.7072 8.30085 25.0527 8.7265 25.0527H11.811ZM15.1525 17.8556V23.5104H12.5821V17.8556H15.1525ZM12.068 14.5141H11.5539C11.4176 14.5141 11.2868 14.4599 11.1904 14.3635C11.094 14.2671 11.0398 14.1364 11.0398 14V13.4859C11.0398 13.3496 11.094 13.2188 11.1904 13.1224C11.2868 13.026 11.4176 12.9719 11.5539 12.9719H12.068C12.2043 12.9719 12.3351 13.026 12.4315 13.1224C12.5279 13.2188 12.5821 13.3496 12.5821 13.4859V14C12.5821 14.1364 12.5279 14.2671 12.4315 14.3635C12.3351 14.4599 12.2043 14.5141 12.068 14.5141ZM16.1806 14.5141H15.6665C15.5302 14.5141 15.3994 14.4599 15.303 14.3635C15.2066 14.2671 15.1525 14.1364 15.1525 14V13.4859C15.1525 13.3496 15.2066 13.2188 15.303 13.1224C15.3994 13.026 15.5302 12.9719 15.6665 12.9719H16.1806C16.317 12.9719 16.4477 13.026 16.5441 13.1224C16.6405 13.2188 16.6947 13.3496 16.6947 13.4859V14C16.6947 14.1364 16.6405 14.2671 16.5441 14.3635C16.4477 14.4599 16.317 14.5141 16.1806 14.5141ZM12.068 11.4296H11.5539C11.4176 11.4296 11.2868 11.3755 11.1904 11.2791C11.094 11.1827 11.0398 11.0519 11.0398 10.9156V10.4015C11.0398 10.2651 11.094 10.1344 11.1904 10.038C11.2868 9.94156 11.4176 9.8874 11.5539 9.8874H12.068C12.2043 9.8874 12.3351 9.94156 12.4315 10.038C12.5279 10.1344 12.5821 10.2651 12.5821 10.4015V10.9156C12.5821 11.0519 12.5279 11.1827 12.4315 11.2791C12.3351 11.3755 12.2043 11.4296 12.068 11.4296ZM16.1806 11.4296H15.6665C15.5302 11.4296 15.3994 11.3755 15.303 11.2791C15.2066 11.1827 15.1525 11.0519 15.1525 10.9156V10.4015C15.1525 10.2651 15.2066 10.1344 15.303 10.038C15.3994 9.94156 15.5302 9.8874 15.6665 9.8874H16.1806C16.317 9.8874 16.4477 9.94156 16.5441 10.038C16.6405 10.1344 16.6947 10.2651 16.6947 10.4015V10.9156C16.6947 11.0519 16.6405 11.1827 16.5441 11.2791C16.4477 11.3755 16.317 11.4296 16.1806 11.4296ZM12.068 8.34517H11.5539C11.4176 8.34517 11.2868 8.29101 11.1904 8.1946C11.094 8.0982 11.0398 7.96744 11.0398 7.8311V7.31702C11.0398 7.18068 11.094 7.04992 11.1904 6.95351C11.2868 6.85711 11.4176 6.80294 11.5539 6.80294H12.068C12.2043 6.80294 12.3351 6.85711 12.4315 6.95351C12.5279 7.04992 12.5821 7.18068 12.5821 7.31702V7.8311C12.5821 7.96744 12.5279 8.0982 12.4315 8.1946C12.3351 8.29101 12.2043 8.34517 12.068 8.34517ZM16.1806 8.34517H15.6665C15.5302 8.34517 15.3994 8.29101 15.303 8.1946C15.2066 8.0982 15.1525 7.96744 15.1525 7.8311V7.31702C15.1525 7.18068 15.2066 7.04992 15.303 6.95351C15.3994 6.85711 15.5302 6.80294 15.6665 6.80294H16.1806C16.317 6.80294 16.4477 6.85711 16.5441 6.95351C16.6405 7.04992 16.6947 7.18068 16.6947 7.31702V7.8311C16.6947 7.96744 16.6405 8.0982 16.5441 8.1946C16.4477 8.29101 16.317 8.34517 16.1806 8.34517ZM6.92723 7.05998H5.64204C5.16485 7.05998 4.7072 7.24955 4.36977 7.58698C4.03234 7.9244 3.84277 8.38205 3.84277 8.85925V24.2815C3.84277 24.7072 4.18823 25.0527 4.61389 25.0527H7.09996C6.98573 24.8117 6.92672 24.5482 6.92723 24.2815V7.05998ZM20.8073 7.05998V24.2815C20.8073 24.5571 20.7456 24.8193 20.6346 25.0527H23.1206C23.3252 25.0527 23.5213 24.9714 23.6659 24.8268C23.8105 24.6822 23.8918 24.4861 23.8918 24.2815V8.85925C23.8918 8.38205 23.7022 7.9244 23.3648 7.58698C23.0273 7.24955 22.5697 7.05998 22.0925 7.05998H20.8073Z" fill="#086885"/>
</svg>
