<svg width="76" height="76" viewBox="0 0 76 76" fill="none" xmlns="http://www.w3.org/2000/svg">
<g opacity="0.16">
<path fill-rule="evenodd" clip-rule="evenodd" d="M11.0173 67.0001H64.6228C65.1594 67.0001 65.6741 66.787 66.0535 66.4075C66.4329 66.0281 66.6461 65.5135 66.6461 64.9769C66.6461 64.4403 66.4329 63.9256 66.0535 63.5462C65.6741 63.1668 65.1594 62.9536 64.6228 62.9536H11.0173C10.4807 62.9536 9.96605 63.1668 9.58662 63.5462C9.20718 63.9256 8.99402 64.4403 8.99402 64.9769C8.99402 65.5135 9.20718 66.0281 9.58662 66.4075C9.96605 66.787 10.4807 67.0001 11.0173 67.0001Z" fill="#AB541F"/>
<path fill-rule="evenodd" clip-rule="evenodd" d="M32.2506 67.0001C31.714 67.0001 31.1994 66.7869 30.82 66.4075C30.4405 66.0281 30.2274 65.5134 30.2274 64.9768V47.4419C30.2288 46.548 30.5845 45.6911 31.2166 45.0591C31.8487 44.427 32.7056 44.0712 33.5995 44.0698H41.6925C42.586 44.0727 43.442 44.4289 44.0738 45.0606C44.7056 45.6924 45.0618 46.5485 45.0646 47.4419V64.9768C45.0646 65.5134 44.8514 66.0281 44.472 66.4075C44.0926 66.7869 43.5779 67.0001 43.0413 67.0001H51.1344C51.671 67.0001 52.1856 66.7869 52.565 66.4075C52.9445 66.0281 53.1576 65.5134 53.1576 64.9768V13.7209C53.1576 12.4689 52.6603 11.2681 51.7749 10.3827C50.8896 9.49738 49.6888 9 48.4367 9H26.8553C25.6032 9 24.4024 9.49738 23.5171 10.3827C22.6317 11.2681 22.1343 12.4689 22.1343 13.7209V64.9768C22.1343 66.0937 23.0408 67.0001 24.1576 67.0001H32.2506ZM41.0181 48.1163V62.9536H34.2739V48.1163H41.0181ZM32.9251 39.3489H31.5762C31.2185 39.3489 30.8754 39.2068 30.6224 38.9538C30.3695 38.7009 30.2274 38.3578 30.2274 38V36.6512C30.2274 36.2935 30.3695 35.9504 30.6224 35.6974C30.8754 35.4445 31.2185 35.3024 31.5762 35.3024H32.9251C33.2828 35.3024 33.6259 35.4445 33.8788 35.6974C34.1318 35.9504 34.2739 36.2935 34.2739 36.6512V38C34.2739 38.3578 34.1318 38.7009 33.8788 38.9538C33.6259 39.2068 33.2828 39.3489 32.9251 39.3489ZM43.7158 39.3489H42.3669C42.0092 39.3489 41.6661 39.2068 41.4132 38.9538C41.1602 38.7009 41.0181 38.3578 41.0181 38V36.6512C41.0181 36.2935 41.1602 35.9504 41.4132 35.6974C41.6661 35.4445 42.0092 35.3024 42.3669 35.3024H43.7158C44.0735 35.3024 44.4166 35.4445 44.6695 35.6974C44.9225 35.9504 45.0646 36.2935 45.0646 36.6512V38C45.0646 38.3578 44.9225 38.7009 44.6695 38.9538C44.4166 39.2068 44.0735 39.3489 43.7158 39.3489ZM32.9251 31.2558H31.5762C31.2185 31.2558 30.8754 31.1137 30.6224 30.8608C30.3695 30.6078 30.2274 30.2647 30.2274 29.907V28.5582C30.2274 28.2004 30.3695 27.8573 30.6224 27.6044C30.8754 27.3514 31.2185 27.2093 31.5762 27.2093H32.9251C33.2828 27.2093 33.6259 27.3514 33.8788 27.6044C34.1318 27.8573 34.2739 28.2004 34.2739 28.5582V29.907C34.2739 30.2647 34.1318 30.6078 33.8788 30.8608C33.6259 31.1137 33.2828 31.2558 32.9251 31.2558ZM43.7158 31.2558H42.3669C42.0092 31.2558 41.6661 31.1137 41.4132 30.8608C41.1602 30.6078 41.0181 30.2647 41.0181 29.907V28.5582C41.0181 28.2004 41.1602 27.8573 41.4132 27.6044C41.6661 27.3514 42.0092 27.2093 42.3669 27.2093H43.7158C44.0735 27.2093 44.4166 27.3514 44.6695 27.6044C44.9225 27.8573 45.0646 28.2004 45.0646 28.5582V29.907C45.0646 30.2647 44.9225 30.6078 44.6695 30.8608C44.4166 31.1137 44.0735 31.2558 43.7158 31.2558ZM32.9251 23.1628H31.5762C31.2185 23.1628 30.8754 23.0207 30.6224 22.7677C30.3695 22.5148 30.2274 22.1717 30.2274 21.814V20.4651C30.2274 20.1074 30.3695 19.7643 30.6224 19.5114C30.8754 19.2584 31.2185 19.1163 31.5762 19.1163H32.9251C33.2828 19.1163 33.6259 19.2584 33.8788 19.5114C34.1318 19.7643 34.2739 20.1074 34.2739 20.4651V21.814C34.2739 22.1717 34.1318 22.5148 33.8788 22.7677C33.6259 23.0207 33.2828 23.1628 32.9251 23.1628ZM43.7158 23.1628H42.3669C42.0092 23.1628 41.6661 23.0207 41.4132 22.7677C41.1602 22.5148 41.0181 22.1717 41.0181 21.814V20.4651C41.0181 20.1074 41.1602 19.7643 41.4132 19.5114C41.6661 19.2584 42.0092 19.1163 42.3669 19.1163H43.7158C44.0735 19.1163 44.4166 19.2584 44.6695 19.5114C44.9225 19.7643 45.0646 20.1074 45.0646 20.4651V21.814C45.0646 22.1717 44.9225 22.5148 44.6695 22.7677C44.4166 23.0207 44.0735 23.1628 43.7158 23.1628ZM19.4367 19.7907H16.0646C14.8125 19.7907 13.6117 20.2881 12.7264 21.1734C11.841 22.0588 11.3436 23.2596 11.3436 24.5117V64.9768C11.3436 66.0937 12.25 67.0001 13.3669 67.0001H19.8899C19.5901 66.3678 19.4353 65.6766 19.4367 64.9768V19.7907ZM55.8553 19.7907V64.9768C55.8553 65.6998 55.6935 66.3877 55.4021 67.0001H61.9251C62.4617 67.0001 62.9763 66.7869 63.3558 66.4075C63.7352 66.0281 63.9483 65.5134 63.9483 64.9768V24.5117C63.9483 23.2596 63.451 22.0588 62.5656 21.1734C61.6803 20.2881 60.4795 19.7907 59.2274 19.7907H55.8553Z" fill="#AB541F"/>
</g>
</svg>
