<svg width="20" height="20" viewBox="0 0 20 20" fill="none" xmlns="http://www.w3.org/2000/svg">
<g opacity="0.6">
<path d="M3.45629 12.4717C2.81884 11.6436 2.50012 11.2295 2.50012 9.99997C2.50012 8.77042 2.81884 8.35637 3.45629 7.52822C4.72909 5.87464 6.8637 3.99997 10.0001 3.99997C13.1365 3.99997 15.2711 5.87464 16.5439 7.52822C17.1814 8.35637 17.5001 8.77042 17.5001 9.99997C17.5001 11.2295 17.1814 11.6436 16.5439 12.4717C15.2711 14.1253 13.1365 16 10.0001 16C6.8637 16 4.72909 14.1253 3.45629 12.4717Z" stroke="#828282" stroke-width="1.5"/>
<path d="M12 10C12 11.1046 11.1046 12 10 12C8.8954 12 8 11.1046 8 10C8 8.8954 8.8954 8 10 8C11.1046 8 12 8.8954 12 10Z" stroke="#828282" stroke-width="1.5"/>
</g>
</svg>
