<svg width="76" height="76" viewBox="0 0 76 76" fill="none" xmlns="http://www.w3.org/2000/svg">
<g opacity="0.16">
<path fill-rule="evenodd" clip-rule="evenodd" d="M55.0508 38.8046C52.0728 38.8046 49.2777 39.4054 46.9266 40.4242C55.1553 42.8014 60.9807 48.4962 61.1375 55.1575C65.4216 54.6089 70.0453 52.9893 70.0453 48.5745C70.0453 43.2716 63.175 38.8046 55.0508 38.8046ZM54.9725 35.0429H55.0247C60.5889 35.0429 65.1342 30.4975 65.1342 24.9595C65.1273 22.2804 64.06 19.713 62.1656 17.8186C60.2712 15.9242 57.7038 14.8569 55.0247 14.85C53.9276 14.85 52.8826 15.0328 51.89 15.3463C53.7555 18.1075 54.7476 21.3659 54.7374 24.6983C54.7695 28.1991 53.67 31.6167 51.6026 34.4421C52.6737 34.8339 53.7969 35.0429 54.9725 35.0429ZM29.3199 40.3981C26.9688 39.4054 24.1737 38.8046 21.2218 38.8046C13.0976 38.8046 6.22729 43.2716 6.22729 48.5745C6.22729 52.9893 10.8249 54.5828 15.1091 55.1575C15.2397 48.4962 21.0651 42.8014 29.3199 40.3981ZM21.2218 35.0429H21.3002C22.4757 35.0429 23.599 34.8339 24.67 34.4421C22.6067 31.6131 21.4994 28.1998 21.5091 24.6983C21.5091 21.2239 22.5541 18.0108 24.3565 15.3463C23.3639 15.0328 22.319 14.85 21.2218 14.85C18.5451 14.8569 15.9804 15.9251 14.0902 17.8202C12.1999 19.7154 11.1384 22.2828 11.1384 24.9595C11.1384 30.4975 15.6576 35.0429 21.2218 35.0429Z" fill="#086885"/>
<path fill-rule="evenodd" clip-rule="evenodd" d="M38.1232 43.0809C27.776 43.0809 19.0327 48.713 19.0327 55.3795C19.0327 64.0001 33.4002 64.0001 38.1232 64.0001C46.3205 64.0001 57.219 63.1119 57.219 55.4344C57.219 48.7365 48.4731 43.0809 38.1232 43.0809ZM38.1232 37.4097H38.212C39.8752 37.4088 41.5218 37.078 43.0562 36.4363C44.5907 35.7946 45.9825 34.8549 47.1513 33.6715C48.3268 32.4952 49.2573 31.0973 49.8886 29.5588C50.52 28.0203 50.8398 26.3717 50.8293 24.7088C50.8259 21.3397 49.4862 18.1096 47.1041 15.727C44.7221 13.3445 41.4923 12.0041 38.1232 12C34.7548 12.0048 31.5259 13.3456 29.1449 15.7281C26.7638 18.1107 25.4251 21.3404 25.4223 24.7088C25.4264 28.076 26.7659 31.3041 29.1469 33.6851C31.5279 36.0661 34.756 37.4055 38.1232 37.4097Z" fill="#086885"/>
</g>
</svg>
